# Blender 3.6.4
# www.blender.org
mtllib tile_base.mtl
o HexagonBase
v 0.000000 0.000000 -5.000000
v -4.330127 0.000000 -2.500000
v -4.330127 0.000000 2.500000
v 0.000000 0.000000 5.000000
v 4.330127 0.000000 2.500000
v 4.330127 0.000000 -2.500000
v 0.000000 1.000000 -5.000000
v -4.330127 1.000000 -2.500000
v -4.330127 1.000000 2.500000
v 0.000000 1.000000 5.000000
v 4.330127 1.000000 2.500000
v 4.330127 1.000000 -2.500000
vn -0.0000 -1.0000 -0.0000
vn -0.0000 1.0000 -0.0000
vn 0.5000 -0.0000 -0.8660
vn 0.5000 -0.0000 0.8660
vn -1.0000 -0.0000 -0.0000
vn 1.0000 -0.0000 -0.0000
vn -0.5000 -0.0000 0.8660
vn -0.5000 -0.0000 -0.8660
vt 0.000000 0.000000
s 0
f 2/1/1 1/1/1 6/1/1 5/1/1 4/1/1 3/1/1
f 8/1/2 9/1/2 10/1/2 11/1/2 12/1/2 7/1/2
f 6/1/3 1/1/3 7/1/3 12/1/3
f 4/1/4 5/1/4 11/1/4 10/1/4
f 2/1/5 3/1/5 9/1/5 8/1/5
f 5/1/6 6/1/6 12/1/6 11/1/6
f 3/1/7 4/1/7 10/1/7 9/1/7
f 1/1/8 2/1/8 8/1/8 7/1/8
